<mxfile host="app.diagrams.net" modified="2020-12-25T18:23:04.318Z" agent="5.0 (Windows NT 10.0; Win64; x64) AppleWebKit/537.36 (KHTML, like Gecko) Chrome/87.0.4280.88 Safari/537.36" etag="VqTwHY5scnDlpEbmN9BL" version="14.0.5" type="github">
  <diagram id="U52wu8n672emOzHa3hWj" name="Page-1">
    <mxGraphModel dx="2036" dy="1812" grid="1" gridSize="10" guides="1" tooltips="1" connect="1" arrows="1" fold="1" page="1" pageScale="1" pageWidth="827" pageHeight="1169" math="0" shadow="0">
      <root>
        <mxCell id="0" />
        <mxCell id="1" parent="0" />
        <mxCell id="r7-jeudsIiPLVNgYVdTX-70" value="port" style="edgeStyle=orthogonalEdgeStyle;rounded=0;orthogonalLoop=1;jettySize=auto;html=1;" edge="1" parent="1" source="r7-jeudsIiPLVNgYVdTX-2" target="r7-jeudsIiPLVNgYVdTX-37">
          <mxGeometry relative="1" as="geometry" />
        </mxCell>
        <mxCell id="r7-jeudsIiPLVNgYVdTX-8" value="WAN" style="ellipse;shape=cloud;whiteSpace=wrap;html=1;" vertex="1" parent="1">
          <mxGeometry x="-430" y="260" width="120" height="80" as="geometry" />
        </mxCell>
        <mxCell id="r7-jeudsIiPLVNgYVdTX-9" value="" style="endArrow=none;html=1;elbow=vertical;" edge="1" parent="1" source="r7-jeudsIiPLVNgYVdTX-76" target="r7-jeudsIiPLVNgYVdTX-2">
          <mxGeometry width="50" height="50" relative="1" as="geometry">
            <mxPoint x="200" y="90" as="sourcePoint" />
            <mxPoint x="250" y="40" as="targetPoint" />
          </mxGeometry>
        </mxCell>
        <mxCell id="r7-jeudsIiPLVNgYVdTX-10" value="" style="endArrow=none;html=1;" edge="1" parent="1" source="r7-jeudsIiPLVNgYVdTX-76" target="r7-jeudsIiPLVNgYVdTX-3">
          <mxGeometry width="50" height="50" relative="1" as="geometry">
            <mxPoint x="190" y="370" as="sourcePoint" />
            <mxPoint x="240" y="320" as="targetPoint" />
          </mxGeometry>
        </mxCell>
        <mxCell id="r7-jeudsIiPLVNgYVdTX-11" value="" style="endArrow=none;html=1;" edge="1" parent="1" source="r7-jeudsIiPLVNgYVdTX-76" target="r7-jeudsIiPLVNgYVdTX-4">
          <mxGeometry width="50" height="50" relative="1" as="geometry">
            <mxPoint x="390" y="290" as="sourcePoint" />
            <mxPoint x="440" y="240" as="targetPoint" />
          </mxGeometry>
        </mxCell>
        <mxCell id="r7-jeudsIiPLVNgYVdTX-12" value="Bridge" style="endArrow=none;html=1;" edge="1" parent="1" source="r7-jeudsIiPLVNgYVdTX-81" target="r7-jeudsIiPLVNgYVdTX-76">
          <mxGeometry width="50" height="50" relative="1" as="geometry">
            <mxPoint x="79.99764700193022" y="340.00416167139986" as="sourcePoint" />
            <mxPoint x="148.2015737638036" y="286.5180908337751" as="targetPoint" />
          </mxGeometry>
        </mxCell>
        <mxCell id="r7-jeudsIiPLVNgYVdTX-15" value="" style="endArrow=none;html=1;" edge="1" parent="1" source="r7-jeudsIiPLVNgYVdTX-8" target="r7-jeudsIiPLVNgYVdTX-75">
          <mxGeometry width="50" height="50" relative="1" as="geometry">
            <mxPoint x="-220" y="410" as="sourcePoint" />
            <mxPoint x="-146" y="228" as="targetPoint" />
          </mxGeometry>
        </mxCell>
        <mxCell id="r7-jeudsIiPLVNgYVdTX-16" value="" style="endArrow=none;html=1;" edge="1" parent="1" source="r7-jeudsIiPLVNgYVdTX-75">
          <mxGeometry width="50" height="50" relative="1" as="geometry">
            <mxPoint x="-74.98718702620386" y="224.98718702620386" as="sourcePoint" />
            <mxPoint x="-6.347371127217002" y="256.24326125054085" as="targetPoint" />
          </mxGeometry>
        </mxCell>
        <mxCell id="r7-jeudsIiPLVNgYVdTX-17" value="teamcity-agent" style="rounded=0;whiteSpace=wrap;html=1;" vertex="1" parent="1">
          <mxGeometry x="390" y="380" width="120" height="60" as="geometry" />
        </mxCell>
        <mxCell id="r7-jeudsIiPLVNgYVdTX-18" value="teamcity-server" style="rounded=0;whiteSpace=wrap;html=1;" vertex="1" parent="1">
          <mxGeometry x="390" y="470" width="120" height="60" as="geometry" />
        </mxCell>
        <mxCell id="r7-jeudsIiPLVNgYVdTX-19" value="teamcity-mysql" style="rounded=0;whiteSpace=wrap;html=1;" vertex="1" parent="1">
          <mxGeometry x="390" y="555" width="120" height="60" as="geometry" />
        </mxCell>
        <mxCell id="r7-jeudsIiPLVNgYVdTX-21" value="bridge" style="endArrow=none;html=1;" edge="1" parent="1" source="r7-jeudsIiPLVNgYVdTX-82" target="r7-jeudsIiPLVNgYVdTX-81">
          <mxGeometry width="50" height="50" relative="1" as="geometry">
            <mxPoint x="-80" y="480" as="sourcePoint" />
            <mxPoint x="200" y="350" as="targetPoint" />
          </mxGeometry>
        </mxCell>
        <mxCell id="r7-jeudsIiPLVNgYVdTX-22" value="" style="endArrow=none;html=1;" edge="1" parent="1" source="r7-jeudsIiPLVNgYVdTX-82" target="r7-jeudsIiPLVNgYVdTX-17">
          <mxGeometry width="50" height="50" relative="1" as="geometry">
            <mxPoint x="227.57590697218302" y="534.6143734230254" as="sourcePoint" />
            <mxPoint x="320" y="330" as="targetPoint" />
          </mxGeometry>
        </mxCell>
        <mxCell id="r7-jeudsIiPLVNgYVdTX-23" value="" style="endArrow=none;html=1;" edge="1" parent="1" source="r7-jeudsIiPLVNgYVdTX-82" target="r7-jeudsIiPLVNgYVdTX-18">
          <mxGeometry width="50" height="50" relative="1" as="geometry">
            <mxPoint x="226.44573334516053" y="575.7756201391439" as="sourcePoint" />
            <mxPoint x="320" y="530" as="targetPoint" />
          </mxGeometry>
        </mxCell>
        <mxCell id="r7-jeudsIiPLVNgYVdTX-24" value="" style="endArrow=none;html=1;" edge="1" parent="1" source="r7-jeudsIiPLVNgYVdTX-82" target="r7-jeudsIiPLVNgYVdTX-19">
          <mxGeometry width="50" height="50" relative="1" as="geometry">
            <mxPoint x="197.62911408237187" y="595.0600315296474" as="sourcePoint" />
            <mxPoint x="300" y="550" as="targetPoint" />
          </mxGeometry>
        </mxCell>
        <mxCell id="r7-jeudsIiPLVNgYVdTX-29" value="Actor" style="shape=umlActor;verticalLabelPosition=bottom;verticalAlign=top;html=1;outlineConnect=0;" vertex="1" parent="1">
          <mxGeometry x="-180" y="90" width="30" height="60" as="geometry" />
        </mxCell>
        <mxCell id="r7-jeudsIiPLVNgYVdTX-50" value="data" style="pointerEvents=1;shadow=0;dashed=0;html=1;strokeColor=none;labelPosition=center;verticalLabelPosition=bottom;verticalAlign=top;outlineConnect=0;align=center;shape=mxgraph.office.concepts.folder;fillColor=#2072B8;" vertex="1" parent="1">
          <mxGeometry x="530" y="570" width="50" height="45" as="geometry" />
        </mxCell>
        <mxCell id="r7-jeudsIiPLVNgYVdTX-51" value="log" style="pointerEvents=1;shadow=0;dashed=0;html=1;strokeColor=none;labelPosition=center;verticalLabelPosition=bottom;verticalAlign=top;outlineConnect=0;align=center;shape=mxgraph.office.concepts.folder;fillColor=#2072B8;" vertex="1" parent="1">
          <mxGeometry x="530" y="640" width="50" height="45" as="geometry" />
        </mxCell>
        <mxCell id="r7-jeudsIiPLVNgYVdTX-55" value="config" style="pointerEvents=1;shadow=0;dashed=0;html=1;strokeColor=none;labelPosition=center;verticalLabelPosition=bottom;verticalAlign=top;outlineConnect=0;align=center;shape=mxgraph.office.concepts.folder;fillColor=#2072B8;" vertex="1" parent="1">
          <mxGeometry x="600" y="570" width="50" height="45" as="geometry" />
        </mxCell>
        <mxCell id="r7-jeudsIiPLVNgYVdTX-56" value="certs" style="pointerEvents=1;shadow=0;dashed=0;html=1;strokeColor=none;labelPosition=center;verticalLabelPosition=bottom;verticalAlign=top;outlineConnect=0;align=center;shape=mxgraph.office.concepts.folder;fillColor=#2072B8;" vertex="1" parent="1">
          <mxGeometry x="600" y="642" width="50" height="45" as="geometry" />
        </mxCell>
        <mxCell id="r7-jeudsIiPLVNgYVdTX-57" value="data" style="pointerEvents=1;shadow=0;dashed=0;html=1;strokeColor=none;labelPosition=center;verticalLabelPosition=bottom;verticalAlign=top;outlineConnect=0;align=center;shape=mxgraph.office.concepts.folder;fillColor=#2072B8;" vertex="1" parent="1">
          <mxGeometry x="530" y="750" width="50" height="45" as="geometry" />
        </mxCell>
        <mxCell id="r7-jeudsIiPLVNgYVdTX-58" value="config" style="pointerEvents=1;shadow=0;dashed=0;html=1;strokeColor=none;labelPosition=center;verticalLabelPosition=bottom;verticalAlign=top;outlineConnect=0;align=center;shape=mxgraph.office.concepts.folder;fillColor=#2072B8;" vertex="1" parent="1">
          <mxGeometry x="600" y="750" width="50" height="45" as="geometry" />
        </mxCell>
        <mxCell id="r7-jeudsIiPLVNgYVdTX-59" value="Extends" style="endArrow=block;endSize=16;endFill=0;html=1;" edge="1" parent="1" source="r7-jeudsIiPLVNgYVdTX-17" target="r7-jeudsIiPLVNgYVdTX-60">
          <mxGeometry width="160" relative="1" as="geometry">
            <mxPoint x="610" y="460" as="sourcePoint" />
            <mxPoint x="770" y="460" as="targetPoint" />
          </mxGeometry>
        </mxCell>
        <mxCell id="r7-jeudsIiPLVNgYVdTX-60" value="jetbrains/teamcity-agent" style="rounded=0;whiteSpace=wrap;html=1;" vertex="1" parent="1">
          <mxGeometry x="610" y="380" width="190" height="60" as="geometry" />
        </mxCell>
        <mxCell id="r7-jeudsIiPLVNgYVdTX-71" value="" style="group" vertex="1" connectable="0" parent="1">
          <mxGeometry x="430" y="-40" width="190" height="80" as="geometry" />
        </mxCell>
        <mxCell id="r7-jeudsIiPLVNgYVdTX-2" value="consul-server-0" style="rounded=0;whiteSpace=wrap;html=1;" vertex="1" parent="r7-jeudsIiPLVNgYVdTX-71">
          <mxGeometry y="10" width="120" height="60" as="geometry" />
        </mxCell>
        <mxCell id="r7-jeudsIiPLVNgYVdTX-41" value="/consul/data-0" style="pointerEvents=1;shadow=0;dashed=0;html=1;strokeColor=none;labelPosition=center;verticalLabelPosition=bottom;verticalAlign=top;outlineConnect=0;align=center;shape=mxgraph.office.concepts.folder;fillColor=#2072B8;" vertex="1" parent="r7-jeudsIiPLVNgYVdTX-71">
          <mxGeometry x="160" width="30" height="25" as="geometry" />
        </mxCell>
        <mxCell id="r7-jeudsIiPLVNgYVdTX-44" value="/consul/config-0" style="pointerEvents=1;shadow=0;dashed=0;html=1;strokeColor=none;labelPosition=center;verticalLabelPosition=bottom;verticalAlign=top;outlineConnect=0;align=center;shape=mxgraph.office.concepts.folder;fillColor=#2072B8;" vertex="1" parent="r7-jeudsIiPLVNgYVdTX-71">
          <mxGeometry x="160" y="55" width="30" height="25" as="geometry" />
        </mxCell>
        <mxCell id="r7-jeudsIiPLVNgYVdTX-72" value="" style="group" vertex="1" connectable="0" parent="1">
          <mxGeometry x="430" y="64.38" width="190" height="82.5" as="geometry" />
        </mxCell>
        <mxCell id="r7-jeudsIiPLVNgYVdTX-3" value="consul-server-1" style="rounded=0;whiteSpace=wrap;html=1;" vertex="1" parent="r7-jeudsIiPLVNgYVdTX-72">
          <mxGeometry y="12.5" width="120" height="60" as="geometry" />
        </mxCell>
        <mxCell id="r7-jeudsIiPLVNgYVdTX-65" value="/consul/data-1" style="pointerEvents=1;shadow=0;dashed=0;html=1;strokeColor=none;labelPosition=center;verticalLabelPosition=bottom;verticalAlign=top;outlineConnect=0;align=center;shape=mxgraph.office.concepts.folder;fillColor=#2072B8;" vertex="1" parent="r7-jeudsIiPLVNgYVdTX-72">
          <mxGeometry x="160" width="30" height="25" as="geometry" />
        </mxCell>
        <mxCell id="r7-jeudsIiPLVNgYVdTX-66" value="/consul/config-1" style="pointerEvents=1;shadow=0;dashed=0;html=1;strokeColor=none;labelPosition=center;verticalLabelPosition=bottom;verticalAlign=top;outlineConnect=0;align=center;shape=mxgraph.office.concepts.folder;fillColor=#2072B8;" vertex="1" parent="r7-jeudsIiPLVNgYVdTX-72">
          <mxGeometry x="160" y="57.5" width="30" height="25" as="geometry" />
        </mxCell>
        <mxCell id="r7-jeudsIiPLVNgYVdTX-73" value="" style="group" vertex="1" connectable="0" parent="1">
          <mxGeometry x="440" y="210" width="190" height="72.5" as="geometry" />
        </mxCell>
        <mxCell id="r7-jeudsIiPLVNgYVdTX-4" value="consul-server-2" style="rounded=0;whiteSpace=wrap;html=1;" vertex="1" parent="r7-jeudsIiPLVNgYVdTX-73">
          <mxGeometry y="5" width="120" height="60" as="geometry" />
        </mxCell>
        <mxCell id="r7-jeudsIiPLVNgYVdTX-67" value="/consul/data-2" style="pointerEvents=1;shadow=0;dashed=0;html=1;strokeColor=none;labelPosition=center;verticalLabelPosition=bottom;verticalAlign=top;outlineConnect=0;align=center;shape=mxgraph.office.concepts.folder;fillColor=#2072B8;" vertex="1" parent="r7-jeudsIiPLVNgYVdTX-73">
          <mxGeometry x="160" width="30" height="25" as="geometry" />
        </mxCell>
        <mxCell id="r7-jeudsIiPLVNgYVdTX-68" value="/consul/config-2" style="pointerEvents=1;shadow=0;dashed=0;html=1;strokeColor=none;labelPosition=center;verticalLabelPosition=bottom;verticalAlign=top;outlineConnect=0;align=center;shape=mxgraph.office.concepts.folder;fillColor=#2072B8;" vertex="1" parent="r7-jeudsIiPLVNgYVdTX-73">
          <mxGeometry x="160" y="47.5" width="30" height="25" as="geometry" />
        </mxCell>
        <mxCell id="r7-jeudsIiPLVNgYVdTX-75" value="test-teamcity.rnd.globms.com" style="rhombus;whiteSpace=wrap;html=1;" vertex="1" parent="1">
          <mxGeometry x="-250" y="245" width="190" height="95" as="geometry" />
        </mxCell>
        <mxCell id="r7-jeudsIiPLVNgYVdTX-76" value="&lt;span style=&quot;background-color: rgb(248 , 249 , 250)&quot;&gt;infra_consul_docker_network&lt;/span&gt;" style="line;strokeWidth=4;direction=south;html=1;perimeter=backbonePerimeter;points=[];outlineConnect=0;" vertex="1" parent="1">
          <mxGeometry x="225" y="19.999999999999996" width="10" height="250" as="geometry" />
        </mxCell>
        <mxCell id="r7-jeudsIiPLVNgYVdTX-79" value="" style="pointerEvents=1;shadow=0;dashed=0;html=1;strokeColor=none;labelPosition=center;verticalLabelPosition=bottom;verticalAlign=top;align=center;fillColor=#505050;shape=mxgraph.mscae.intune.intune_vpn_profiles" vertex="1" parent="1">
          <mxGeometry x="340" y="270" width="42" height="50" as="geometry" />
        </mxCell>
        <mxCell id="r7-jeudsIiPLVNgYVdTX-81" value="ethernet" style="line;strokeWidth=4;direction=south;html=1;perimeter=backbonePerimeter;points=[];outlineConnect=0;" vertex="1" parent="1">
          <mxGeometry x="70" y="210" width="10" height="330" as="geometry" />
        </mxCell>
        <mxCell id="r7-jeudsIiPLVNgYVdTX-37" value="8500" style="rhombus;whiteSpace=wrap;html=1;" vertex="1" parent="1">
          <mxGeometry x="55" y="170" width="40" height="40" as="geometry" />
        </mxCell>
        <mxCell id="r7-jeudsIiPLVNgYVdTX-82" value="teamcity_docker_network" style="line;strokeWidth=4;direction=south;html=1;perimeter=backbonePerimeter;points=[];outlineConnect=0;" vertex="1" parent="1">
          <mxGeometry x="280" y="370" width="10" height="280" as="geometry" />
        </mxCell>
      </root>
    </mxGraphModel>
  </diagram>
</mxfile>
